<svg role="img" aria-labelledby="note-app-title" focusable="false" xmlns="http://www.w3.org/2000/svg" class="abl-block" width="100%" height="100%" viewBox="0 0 1024 1024"><title id="note-app-title">Note app icon</title><defs><clipPath id="note-clip-path"><path fill="#fff" transform="translate(0 110.61)" d="M0 217.809h775.284v-328.42H0z"></path></clipPath><clipPath id="clip-Note_App_Icon_V1_2022_1"><path d="M0 0h1024v1024H0z"></path></clipPath><linearGradient id="note-linear-gradient" x1=".5" x2=".5" y2="1"><stop stop-color="#2a2e2d" offset=".001"></stop><stop stop-color="#1e2120" offset="1"></stop></linearGradient></defs><g clip-path="url(#clip-Note_App_Icon_V1_2022_1)" style="clip-path:url(#clip-Note_App_Icon_V1_2022_1)"><path fill="#fff" d="M0 0h1024v1024H0z"></path><rect width="1024" height="1024" rx="200" style="fill:url(#note-linear-gradient)"></rect><g clip-path="url(#note-clip-path)" style="clip-path:url(#note-clip-path)" transform="translate(124.36 347.79)"><path fill="#fff" d="M44.483 310.539V107.291l211.1 221.132V19.629h-44.489v201.5L0 .003v310.536zm338.491-188.415c-55.389 0-98.133 40.125-98.133 96.824 0 56.265 42.744 97.263 98.133 97.263s98.133-41 98.133-97.263c0-56.7-42.744-96.824-98.133-96.824m0 155.7c-33.584 0-54.519-23.115-54.519-58.445 0-41.868 27.479-58.878 54.519-58.878s54.519 17.01 54.519 58.878c0 35.33-20.935 58.445-54.519 58.445m207.953-111.65v-39.252h-32.711V59.754h-42.741v67.168h-17.883v39.252h17.883v144.365h42.741V166.174zm147.284 82.432a66.32 66.32 0 0 1-17.01 20.062c-8.723 6.544-17.447 9.16-29.222 9.16-10.466 0-22.678-1.746-32.711-11.776-9.16-9.16-14.828-23.988-15.7-37.073h131.715v-5.235c0-19.19-2.182-53.21-25.733-77.634-10.9-11.339-29.659-23.988-58.881-23.988-26.167 0-46.229 9.6-61.5 24.861-19.186 19.627-29.216 47.108-29.216 75.456 0 27.476 9.593 52.773 27.04 70.217s37.509 23.554 61.933 23.554c19.626 0 39.252-4.362 54.083-13.958 11.776-7.414 23.115-19.626 30.965-33.584zm-91.592-54.515c2.182-9.16 6.978-17.883 13.085-23.554 5.671-5.668 15.264-11.776 30.1-11.776 13.955 0 23.115 5.235 28.786 10.469a44.393 44.393 0 0 1 13.077 24.861z" data-name="Path 5"></path></g></g></svg>